<svg width="23" height="23" viewBox="0 0 23 23" fill="none" xmlns="http://www.w3.org/2000/svg">
<rect width="23" height="23" fill="#386DF3"/>
<path fill-rule="evenodd" clip-rule="evenodd" d="M8.79008 7.70272L8.94999 7.31435C9.25856 6.56492 9.9889 6.07581 10.7994 6.07581L13.4106 6.07581C14.2211 6.07581 14.9514 6.56492 15.26 7.31435L15.4199 7.70272H16C17.6569 7.70272 19 9.04587 19 10.7027V13.9993C19 15.6562 17.6569 16.9993 16 16.9993H8C6.34315 16.9993 5 15.6562 5 13.9993V10.7027C5 9.04587 6.34315 7.70272 8 7.70272L8.79008 7.70272Z" fill="#C2CCDE" fill-opacity="0.25"/>
<path d="M8.79008 7.70272V8.20272H9.12494L9.25243 7.89309L8.79008 7.70272ZM8.94999 7.31435L9.41234 7.50471L8.94999 7.31435ZM15.26 7.31435L15.7223 7.12399V7.12398L15.26 7.31435ZM15.4199 7.70272L14.9575 7.89309L15.085 8.20272H15.4199V7.70272ZM9.25243 7.89309L9.41234 7.50471L8.48765 7.12398L8.32774 7.51236L9.25243 7.89309ZM9.41234 7.50471C9.64376 6.94264 10.1915 6.57581 10.7994 6.57581V5.57581C9.78628 5.57581 8.87336 6.1872 8.48765 7.12398L9.41234 7.50471ZM10.7994 6.57581L13.4106 6.57581V5.57581L10.7994 5.57581V6.57581ZM13.4106 6.57581C14.0184 6.57581 14.5662 6.94264 14.7976 7.50471L15.7223 7.12398C15.3366 6.1872 14.4237 5.57581 13.4106 5.57581V6.57581ZM14.7976 7.50471L14.9575 7.89309L15.8822 7.51236L15.7223 7.12399L14.7976 7.50471ZM15.4199 8.20272H16V7.20272H15.4199V8.20272ZM16 8.20272C17.3807 8.20272 18.5 9.32201 18.5 10.7027L19.5 10.7027C19.5 8.76973 17.933 7.20272 16 7.20272V8.20272ZM18.5 10.7027V13.9993L19.5 13.9993V10.7027L18.5 10.7027ZM18.5 13.9993C18.5 15.38 17.3807 16.4993 16 16.4993V17.4993C17.933 17.4993 19.5 15.9323 19.5 13.9993L18.5 13.9993ZM16 16.4993H8V17.4993H16V16.4993ZM8 16.4993C6.61929 16.4993 5.5 15.38 5.5 13.9993H4.5C4.5 15.9323 6.067 17.4993 8 17.4993V16.4993ZM5.5 13.9993V10.7027H4.5V13.9993H5.5ZM5.5 10.7027C5.5 9.32201 6.61929 8.20272 8 8.20272V7.20272C6.067 7.20272 4.5 8.76973 4.5 10.7027H5.5ZM8 8.20272H8.79008V7.20272L8 7.20272V8.20272Z" fill="white"/>
<path d="M10.5665 9.63417C11.4618 9.15366 12.5382 9.15366 13.4335 9.63417L13.5976 9.72228C14.4803 10.1961 15.0311 11.1168 15.0311 12.1186V12.1186C15.0311 13.1204 14.4803 14.0411 13.5976 14.5149L13.4335 14.603C12.5382 15.0835 11.4618 15.0835 10.5665 14.603L10.4024 14.5149C9.51968 14.0411 8.96891 13.1204 8.96891 12.1186V12.1186C8.96891 11.1168 9.51967 10.1961 10.4024 9.72228L10.5665 9.63417Z" stroke="white" stroke-linecap="round" stroke-linejoin="round"/>
</svg>
