<svg width="141" height="150" viewBox="0 0 141 150" fill="none" xmlns="http://www.w3.org/2000/svg">
<path d="M134.254 105.929H6.74641C5.03014 105.927 3.38471 105.245 2.17112 104.031C0.957534 102.818 0.274888 101.172 0.272949 99.4559V6.47346C0.274889 4.75719 0.957534 3.11176 2.17112 1.89817C3.38471 0.684585 5.03014 0.00193974 6.74641 0H134.254C135.97 0.0019387 137.616 0.684585 138.829 1.89817C140.043 3.11176 140.726 4.75719 140.727 6.47346V99.4559C140.726 101.172 140.043 102.818 138.829 104.031C137.616 105.245 135.97 105.927 134.254 105.929Z" fill="#E6E6E6"/>
<path d="M125.281 105.733H124.407L110.895 78.5133L110.502 77.7286L100.51 57.5942L83.5766 23.481L83.1882 22.6964L72.0186 0.196167H72.8974L84.0631 22.6964L84.4555 23.481L100.957 56.7272L101.345 57.5118L111.334 77.6306L125.281 105.733Z" fill="white"/>
<path d="M140.531 22.6982H0.469238V23.4828H140.531V22.6982Z" fill="white"/>
<path d="M140.531 56.729H100.678V57.5137H140.531V56.729Z" fill="white"/>
<path d="M38.5312 0.196198H37.7466V106.126H38.5312V0.196198Z" fill="white"/>
<path d="M111.137 77.7276H38.1392V78.5122H111.137V77.7276Z" fill="white"/>
<path d="M83.8396 41.5871C83.8396 48.2747 74.0047 67.1334 70.3108 73.9805C70.1767 74.2296 69.9776 74.4378 69.7347 74.583C69.4917 74.7281 69.214 74.8047 68.931 74.8047C68.6481 74.8047 68.3704 74.7281 68.1274 74.583C67.8845 74.4378 67.6854 74.2296 67.5512 73.9805C63.8574 67.1334 54.0225 48.2747 54.0225 41.5871C54.0225 37.6331 55.5932 33.8411 58.3891 31.0452C61.185 28.2493 64.977 26.6786 68.931 26.6786C72.885 26.6786 76.6771 28.2493 79.473 31.0452C82.2689 33.8411 83.8396 37.6331 83.8396 41.5871Z" fill="#386DF3"/>
<path d="M68.9309 48.2568C72.6144 48.2568 75.6005 45.2707 75.6005 41.5871C75.6005 37.9036 72.6144 34.9175 68.9309 34.9175C65.2473 34.9175 62.2612 37.9036 62.2612 41.5871C62.2612 45.2707 65.2473 48.2568 68.9309 48.2568Z" fill="#E6E6E6"/>
<path d="M68.9309 81.2126C70.4476 81.2126 71.6772 79.983 71.6772 78.4663C71.6772 76.9495 70.4476 75.72 68.9309 75.72C67.4141 75.72 66.1846 76.9495 66.1846 78.4663C66.1846 79.983 67.4141 81.2126 68.9309 81.2126Z" fill="#386DF3"/>
<path d="M69.0368 119.606C66.031 119.606 63.0925 120.497 60.5931 122.166C58.0937 123.836 56.1455 126.21 54.9951 128.987C53.8446 131.763 53.5435 134.819 54.1298 137.767C54.7161 140.715 56.1635 143.423 58.289 145.549C60.4144 147.674 63.1224 149.122 66.0705 149.708C69.0186 150.294 72.0744 149.993 74.8514 148.843C77.6283 147.692 80.0017 145.744 81.6715 143.245C83.3412 140.745 84.2322 137.807 84.2318 134.801C84.2271 130.773 82.6247 126.91 79.7761 124.062C76.9275 121.213 73.0653 119.611 69.0368 119.606ZM69.0368 149.16C66.1972 149.161 63.4212 148.319 61.0599 146.742C58.6987 145.165 56.8581 142.923 55.7711 140.299C54.684 137.676 54.3993 134.789 54.9529 132.004C55.5065 129.219 56.8735 126.66 58.8812 124.652C60.8888 122.644 63.4469 121.276 66.2318 120.722C69.0168 120.168 71.9037 120.451 74.5273 121.538C77.1509 122.624 79.3935 124.464 80.9714 126.825C82.5493 129.186 83.3917 131.961 83.3921 134.801C83.3877 138.607 81.8739 142.256 79.1829 144.948C76.4918 147.64 72.8431 149.155 69.0368 149.16Z" fill="#E6E6E6"/>
<path d="M76.5146 127.516C76.1004 127.198 75.5772 127.059 75.06 127.127C74.5428 127.195 74.0739 127.466 73.7564 127.88L66.977 136.72L64.1091 134.523C63.9041 134.364 63.6699 134.248 63.42 134.181C63.1701 134.114 62.9093 134.096 62.6527 134.13C62.396 134.163 62.1485 134.247 61.9243 134.377C61.7001 134.506 61.5037 134.678 61.3462 134.884C61.1888 135.089 61.0734 135.324 61.0068 135.574C60.9401 135.824 60.9235 136.085 60.9578 136.341C60.9921 136.598 61.0768 136.845 61.2068 137.069C61.3369 137.293 61.5099 137.489 61.7158 137.646L66.1452 141.035L66.1649 141.051C66.5043 141.306 66.9174 141.444 67.3419 141.443C67.6443 141.443 67.9426 141.374 68.214 141.241C68.4854 141.108 68.7226 140.914 68.9072 140.674L76.8793 130.274C77.1965 129.859 77.3362 129.336 77.2678 128.819C77.1994 128.302 76.9285 127.833 76.5146 127.516Z" fill="#386DF3"/>
</svg>
