<svg width="48" height="48" viewBox="0 0 48 48" fill="none" xmlns="http://www.w3.org/2000/svg">
<rect width="48" height="48" rx="14" fill="white"/>
<path d="M28.9998 19C28.4915 19 28.0248 18.7084 27.7915 18.2584L27.1915 17.05C26.8081 16.2917 25.8081 15.6667 24.9581 15.6667H23.0498C22.1915 15.6667 21.1915 16.2917 20.8081 17.05L20.2081 18.2584C19.9748 18.7084 19.5081 19 18.9998 19C17.1915 19 15.7581 20.525 15.8748 22.325L16.3081 29.2084C16.4081 30.925 17.3331 32.3334 19.6331 32.3334H28.3665C30.6665 32.3334 31.5831 30.925 31.6915 29.2084L32.1248 22.325C32.2415 20.525 30.8081 19 28.9998 19ZM22.7498 20.0417H25.2498C25.5915 20.0417 25.8748 20.325 25.8748 20.6667C25.8748 21.0084 25.5915 21.2917 25.2498 21.2917H22.7498C22.4081 21.2917 22.1248 21.0084 22.1248 20.6667C22.1248 20.325 22.4081 20.0417 22.7498 20.0417ZM23.9998 29.1C22.4498 29.1 21.1831 27.8417 21.1831 26.2834C21.1831 24.725 22.4415 23.4667 23.9998 23.4667C25.5581 23.4667 26.8165 24.725 26.8165 26.2834C26.8165 27.8417 25.5498 29.1 23.9998 29.1Z" fill="#0C1B54"/>
</svg>
