<svg width="24" height="24" viewBox="0 0 24 24" fill="none" xmlns="http://www.w3.org/2000/svg">
<path d="M16.0996 6.20059C15.6996 5.90059 14.9996 5.90059 14.6996 6.40059L7.69958 15.4006L4.29958 11.2006C3.99958 10.8006 3.29958 10.7006 2.89958 11.0006C2.49958 11.3006 2.39958 12.0006 2.69958 12.4006L6.89958 17.6006C7.09958 17.9006 7.39958 18.0006 7.69958 18.0006C7.99958 18.0006 8.29958 17.9006 8.49958 17.6006L16.2996 7.60059C16.6996 7.20059 16.5996 6.60059 16.0996 6.20059Z" fill="white"/>
<path d="M21.0996 6.20059C20.6996 5.90059 19.9996 5.90059 19.6996 6.40059L12.6996 15.4006L12.0996 14.6006L10.7996 16.2006L11.8996 17.6006C12.0996 17.8006 12.3996 18.0006 12.6996 18.0006C12.9996 18.0006 13.2996 17.9006 13.4996 17.6006L21.2996 7.60059C21.6996 7.20059 21.5996 6.50059 21.0996 6.20059Z" fill="white"/>
<path d="M8.19958 13.1005L9.49958 11.5005L9.29958 11.3005C8.99958 10.8005 8.29958 10.7005 7.89958 11.0005C7.49958 11.3005 7.39958 12.0005 7.69958 12.4005L8.19958 13.1005Z" fill="white"/>
</svg>
