<svg width="48" height="48" viewBox="0 0 48 48" fill="none" xmlns="http://www.w3.org/2000/svg">
<rect width="48" height="48" rx="14" fill="white"/>
<path d="M29.008 15.6667V16.9167C29.558 16.9167 30.083 17.1417 30.4663 17.5167C30.8663 17.925 31.083 18.45 31.083 19V21.0167C31.083 21.6334 30.808 21.9167 30.183 21.9167H28.583V17.3417C28.583 17.1084 28.7747 16.9167 29.008 16.9167V15.6667ZM29.008 15.6667C28.083 15.6667 27.333 16.4167 27.333 17.3417V23.1667H30.183C31.4997 23.1667 32.333 22.3334 32.333 21.0167V19C32.333 18.0834 31.958 17.25 31.358 16.6417C30.7497 16.0417 29.9247 15.675 29.008 15.6667C29.0163 15.6667 29.008 15.6667 29.008 15.6667Z" fill="#0C1B54"/>
<path d="M19.8337 15.6667H19.0003C16.5003 15.6667 15.667 17.1584 15.667 19V19.8334V31.5C15.667 32.1917 16.4503 32.5834 17.0003 32.1667L18.4253 31.1C18.7587 30.85 19.2253 30.8834 19.5253 31.1834L20.9087 32.575C21.2337 32.9 21.767 32.9 22.092 32.575L23.492 31.175C23.7837 30.8834 24.2503 30.85 24.5753 31.1L26.0003 32.1667C26.5503 32.575 27.3337 32.1834 27.3337 31.5V17.3334C27.3337 16.4167 28.0837 15.6667 29.0003 15.6667H19.8337ZM23.792 22.9584H22.1253V24.625C22.1253 24.9667 21.842 25.25 21.5003 25.25C21.1587 25.25 20.8753 24.9667 20.8753 24.625V22.9584H19.2087C18.867 22.9584 18.5837 22.675 18.5837 22.3334C18.5837 21.9917 18.867 21.7084 19.2087 21.7084H20.8753V20.0417C20.8753 19.7 21.1587 19.4167 21.5003 19.4167C21.842 19.4167 22.1253 19.7 22.1253 20.0417V21.7084H23.792C24.1337 21.7084 24.417 21.9917 24.417 22.3334C24.417 22.675 24.1337 22.9584 23.792 22.9584Z" fill="#0C1B54"/>
</svg>
