<svg width="48" height="48" viewBox="0 0 48 48" fill="none" xmlns="http://www.w3.org/2000/svg">
<rect width="48" height="48" rx="14" fill="white"/>
<path d="M31.083 22.4917H28.6747C26.6997 22.4917 25.0913 20.8834 25.0913 18.9084V16.5C25.0913 16.0417 24.7163 15.6667 24.258 15.6667H20.7247C18.158 15.6667 16.083 17.3334 16.083 20.3084V27.6917C16.083 30.6667 18.158 32.3334 20.7247 32.3334H27.2747C29.8413 32.3334 31.9163 30.6667 31.9163 27.6917V23.325C31.9163 22.8667 31.5413 22.4917 31.083 22.4917ZM23.608 25.275C23.483 25.4 23.3247 25.4584 23.1663 25.4584C23.008 25.4584 22.8497 25.4 22.7247 25.275L22.1247 24.675V28.1667C22.1247 28.5084 21.8413 28.7917 21.4997 28.7917C21.158 28.7917 20.8747 28.5084 20.8747 28.1667V24.675L20.2747 25.275C20.033 25.5167 19.633 25.5167 19.3913 25.275C19.1497 25.0334 19.1497 24.6334 19.3913 24.3917L21.058 22.725C21.1163 22.675 21.1747 22.6334 21.2413 22.6C21.258 22.5917 21.283 22.5834 21.2997 22.575C21.3497 22.5584 21.3997 22.55 21.458 22.5417C21.483 22.5417 21.4997 22.5417 21.5247 22.5417C21.5913 22.5417 21.658 22.5584 21.7247 22.5834C21.733 22.5834 21.733 22.5834 21.7413 22.5834C21.808 22.6084 21.8747 22.6584 21.9247 22.7084C21.933 22.7167 21.9413 22.7167 21.9413 22.725L23.608 24.3917C23.8497 24.6334 23.8497 25.0334 23.608 25.275Z" fill="#0C1B54"/>
<path d="M28.5251 21.3416C29.3167 21.35 30.4167 21.35 31.3584 21.35C31.8334 21.35 32.0834 20.7916 31.7501 20.4583C30.5501 19.25 28.4001 17.075 27.1667 15.8416C26.8251 15.5 26.2334 15.7333 26.2334 16.2083V19.1166C26.2334 20.3333 27.2667 21.3416 28.5251 21.3416Z" fill="#0C1B54"/>
</svg>
