<svg width="25" height="24" viewBox="0 0 25 24" fill="none" xmlns="http://www.w3.org/2000/svg">
<path d="M12.6567 2.5C13.5772 2.5001 14.3705 2.97412 14.8013 3.73633L14.8784 3.87305L15.021 3.94141C16.8446 4.81197 18.1069 6.67115 18.1069 8.82031V11.3496C18.1069 11.6164 18.1652 11.9419 18.2446 12.2354C18.3044 12.4563 18.3832 12.6872 18.4751 12.8877L18.5718 13.0771L18.5786 13.0879L19.5786 14.748L19.5796 14.75C19.8898 15.2591 19.9441 15.8582 19.7388 16.4033C19.5565 16.8871 19.2058 17.2677 18.7515 17.4766L18.5503 17.5547L18.5474 17.5557C16.6605 18.1879 14.674 18.5 12.686 18.5C10.8224 18.5 8.96108 18.2259 7.18213 17.6631L6.82764 17.5469L6.82666 17.5459L6.60303 17.458C6.1745 17.2634 5.85105 16.9584 5.66748 16.5967L5.5874 16.4111L5.58545 16.4072L5.52588 16.209C5.41335 15.7403 5.49455 15.2335 5.78369 14.748L5.78467 14.749L6.79443 13.0791L6.79834 13.0723C6.93394 12.8398 7.04775 12.5284 7.12744 12.2354C7.20705 11.9426 7.26611 11.6165 7.26611 11.3496V8.82031C7.26611 6.83191 8.35113 5.0887 9.96045 4.14551L10.2896 3.96777L10.4272 3.89844L10.5024 3.76367C10.9353 2.98954 11.7504 2.5 12.6567 2.5Z" fill="#0C1B54" stroke="#0C1B54"/>
<path d="M10.9131 20.627V20.6279C11.4949 20.679 12.0896 20.71 12.6865 20.71C13.1271 20.71 13.5665 20.6924 14 20.6621L14.4307 20.6279H14.4346C14.4769 20.6239 14.5236 20.6192 14.5732 20.6152C14.1121 21.1563 13.4286 21.4999 12.667 21.5C12.0081 21.5 11.3589 21.2318 10.9062 20.7627L10.8887 20.7451L10.7969 20.6523C10.785 20.6395 10.7743 20.6255 10.7627 20.6123C10.8127 20.6172 10.8628 20.6227 10.9131 20.627Z" fill="#0C1B54" stroke="#0C1B54"/>
</svg>
