<svg width="20" height="20" viewBox="0 0 20 20" fill="none" xmlns="http://www.w3.org/2000/svg">
<g clip-path="url(#clip0_5_183)">
<path d="M10 20C15.5228 20 20 15.5228 20 10C20 4.47715 15.5228 0 10 0C4.47715 0 0 4.47715 0 10C0 15.5228 4.47715 20 10 20Z" fill="#6DA544"/>
<path d="M5.65216 11.9565C5.65216 12.6769 6.23615 13.2609 6.9565 13.2609H10.8695C10.8695 13.8612 11.3562 14.3478 11.9565 14.3478H13.2608C13.8611 14.3478 14.3478 13.8612 14.3478 13.2609V11.9565H5.65216Z" fill="#F0F0F0"/>
<path d="M14.4565 5.65219V8.69567C14.4565 9.17516 14.0665 9.56524 13.587 9.56524V10.8696C14.7857 10.8696 15.7609 9.89434 15.7609 8.69567V5.65219H14.4565Z" fill="#F0F0F0"/>
<path d="M5.10871 8.6957C5.10871 9.17519 4.71863 9.56527 4.23914 9.56527V10.8696C5.43785 10.8696 6.41304 9.89437 6.41304 8.6957V5.65222H5.10871V8.6957Z" fill="#F0F0F0"/>
<path d="M12.5 5.65219H13.8043V8.69567H12.5V5.65219Z" fill="#F0F0F0"/>
<path d="M10.5435 7.3913C10.5435 7.51118 10.4459 7.60868 10.3261 7.60868C10.2063 7.60868 10.1087 7.51114 10.1087 7.3913V5.65216H8.80439V7.3913C8.80439 7.51118 8.70685 7.60868 8.587 7.60868C8.46716 7.60868 8.36962 7.51114 8.36962 7.3913V5.65216H7.06525V7.3913C7.06525 8.2304 7.7479 8.91306 8.587 8.91306C8.91017 8.91306 9.20986 8.8115 9.45657 8.639C9.70325 8.81146 10.003 8.91306 10.3261 8.91306C10.3912 8.91306 10.4552 8.90849 10.5181 8.90048C10.4257 9.2813 10.0827 9.56521 9.67396 9.56521V10.8695C10.8727 10.8695 11.8479 9.89431 11.8479 8.69564V7.3913V5.65216H10.5435V7.3913H10.5435Z" fill="#F0F0F0"/>
<path d="M7.06525 9.56525H9.02177V10.8696H7.06525V9.56525Z" fill="#F0F0F0"/>
</g>
<defs>
<clipPath id="clip0_5_183">
<rect width="20" height="20" fill="white"/>
</clipPath>
</defs>
</svg>
