<svg width="24" height="24" viewBox="0 0 24 24" fill="none" xmlns="http://www.w3.org/2000/svg">
<path d="M16.0998 6.20059C15.6998 5.90059 14.9998 5.90059 14.6998 6.40059L7.69982 15.4006L4.29982 11.2006C3.99982 10.8006 3.29982 10.7006 2.89982 11.0006C2.49982 11.3006 2.39982 12.0006 2.69982 12.4006L6.89982 17.6006C7.09982 17.9006 7.39982 18.0006 7.69982 18.0006C7.99982 18.0006 8.29982 17.9006 8.49982 17.6006L16.2998 7.60059C16.6998 7.20059 16.5998 6.60059 16.0998 6.20059Z" fill="#CED1DD"/>
<path d="M21.0998 6.20059C20.6998 5.90059 19.9998 5.90059 19.6998 6.40059L12.6998 15.4006L12.0998 14.6006L10.7998 16.2006L11.8998 17.6006C12.0998 17.8006 12.3998 18.0006 12.6998 18.0006C12.9998 18.0006 13.2998 17.9006 13.4998 17.6006L21.2998 7.60059C21.6998 7.20059 21.5998 6.50059 21.0998 6.20059Z" fill="#CED1DD"/>
<path d="M8.19982 13.1005L9.49982 11.5005L9.29982 11.3005C8.99982 10.8005 8.29982 10.7005 7.89982 11.0005C7.49982 11.3005 7.39982 12.0005 7.69982 12.4005L8.19982 13.1005Z" fill="#CED1DD"/>
</svg>
