<svg width="48" height="48" viewBox="0 0 48 48" fill="none" xmlns="http://www.w3.org/2000/svg">
<rect width="48" height="48" rx="14" fill="white"/>
<path d="M31.4747 14.8333H29.0247C27.9663 14.8333 27.333 15.4666 27.333 16.525V18.975C27.333 20.0333 27.9663 20.6666 29.0247 20.6666H31.4747C32.533 20.6666 33.1663 20.0333 33.1663 18.975V16.525C33.1663 15.4666 32.533 14.8333 31.4747 14.8333ZM31.658 17.5916C31.558 17.6916 31.4247 17.7416 31.2913 17.7416C31.158 17.7416 31.0247 17.6916 30.9247 17.5916L30.7747 17.4416V19.3083C30.7747 19.6 30.5413 19.8333 30.2497 19.8333C29.958 19.8333 29.7247 19.6 29.7247 19.3083V17.4416L29.5747 17.5916C29.3747 17.7916 29.0413 17.7916 28.8413 17.5916C28.6413 17.3916 28.6413 17.0583 28.8413 16.8583L29.883 15.8166C29.9247 15.775 29.983 15.7416 30.0413 15.7166C30.058 15.7083 30.0747 15.7083 30.0913 15.7C30.133 15.6833 30.1747 15.675 30.2247 15.675C30.2413 15.675 30.258 15.675 30.2747 15.675C30.333 15.675 30.383 15.6833 30.4413 15.7083C30.4497 15.7083 30.4497 15.7083 30.458 15.7083C30.5163 15.7333 30.5663 15.7666 30.608 15.8083C30.6163 15.8166 30.6163 15.8166 30.6247 15.8166L31.6663 16.8583C31.8663 17.0583 31.8663 17.3916 31.658 17.5916Z" fill="#0C1B54"/>
<path d="M21.4999 22.65C22.5953 22.65 23.4833 21.762 23.4833 20.6667C23.4833 19.5713 22.5953 18.6833 21.4999 18.6833C20.4046 18.6833 19.5166 19.5713 19.5166 20.6667C19.5166 21.762 20.4046 22.65 21.4999 22.65Z" fill="#0C1B54"/>
<path d="M31.4753 20.6667H31.0837V24.5084L30.9753 24.4167C30.3253 23.8584 29.2753 23.8584 28.6253 24.4167L25.1587 27.3917C24.5087 27.95 23.4587 27.95 22.8087 27.3917L22.5253 27.1584C21.9337 26.6417 20.992 26.5917 20.3253 27.0417L17.2087 29.1334C17.0253 28.6667 16.917 28.125 16.917 27.4917V20.5084C16.917 18.1584 18.1587 16.9167 20.5087 16.9167H27.3337V16.525C27.3337 16.1917 27.392 15.9084 27.5253 15.6667H20.5087C17.4753 15.6667 15.667 17.475 15.667 20.5084V27.4917C15.667 28.4 15.8253 29.1917 16.1337 29.8584C16.8503 31.4417 18.3837 32.3334 20.5087 32.3334H27.492C30.5253 32.3334 32.3337 30.525 32.3337 27.4917V20.475C32.092 20.6084 31.8087 20.6667 31.4753 20.6667Z" fill="#0C1B54"/>
</svg>
