<svg width="17" height="17" viewBox="0 0 17 17" fill="none" xmlns="http://www.w3.org/2000/svg">
<path d="M1.73278 4.60904L3.95264 8.3762C3.99504 8.44813 3.99512 8.53468 3.95286 8.60669L1.73172 12.3913C1.63646 12.5536 1.76524 12.75 1.96693 12.75H3.92412C4.02248 12.75 4.11287 12.7006 4.15932 12.6214L6.51553 8.60669C6.55779 8.53468 6.55771 8.44813 6.51532 8.3762L4.1594 4.37819C4.11289 4.29923 4.02261 4.25 3.92441 4.25H1.96778C1.7659 4.25 1.63713 4.44673 1.73278 4.60904Z" fill="white"/>
<path d="M6.10876 4.60904L8.32862 8.3762C8.37102 8.44813 8.3711 8.53468 8.32884 8.60669L6.10769 12.3913C6.01244 12.5536 6.14122 12.75 6.3429 12.75H8.3001C8.39846 12.75 8.48885 12.7006 8.53531 12.6214L10.8915 8.60669C10.9338 8.53468 10.9337 8.44813 10.8913 8.3762L8.53539 4.37819C8.48885 4.29923 8.39859 4.25 8.30039 4.25H6.34373C6.14188 4.25 6.01311 4.44673 6.10876 4.60904Z" fill="white"/>
<path d="M10.4852 4.60907L12.7051 8.3762C12.7475 8.44813 12.7476 8.53468 12.7053 8.60669L10.4842 12.3913C10.3889 12.5536 10.5177 12.75 10.7194 12.75H12.6766C12.7749 12.75 12.8653 12.7006 12.9118 12.6214L15.268 8.60671C15.3102 8.53471 15.3102 8.44815 15.2678 8.37622L12.9118 4.37822C12.8653 4.29925 12.775 4.25002 12.6768 4.25002H10.7202C10.5183 4.25002 10.3896 4.44675 10.4852 4.60907Z" fill="white"/>
</svg>
