<svg width="17" height="18" viewBox="0 0 17 18" fill="none" xmlns="http://www.w3.org/2000/svg">
<path d="M15.2672 5.10904L13.0474 8.8762C13.005 8.94813 13.0049 9.03468 13.0471 9.10669L15.2683 12.8913C15.3635 13.0536 15.2348 13.25 15.0331 13.25H13.0759C12.9775 13.25 12.8871 13.2006 12.8407 13.1214L10.4845 9.10669C10.4422 9.03468 10.4423 8.94813 10.4847 8.8762L12.8406 4.87819C12.8871 4.79923 12.9774 4.75 13.0756 4.75H15.0322C15.2341 4.75 15.3629 4.94673 15.2672 5.10904Z" fill="#2AB749"/>
<path d="M10.8912 5.10904L8.67138 8.8762C8.62898 8.94813 8.6289 9.03468 8.67116 9.10669L10.8923 12.8913C10.9876 13.0536 10.8588 13.25 10.6571 13.25H8.6999C8.60154 13.25 8.51115 13.2006 8.46469 13.1214L6.10848 9.10669C6.06622 9.03468 6.0663 8.94813 6.10869 8.8762L8.46461 4.87819C8.51115 4.79923 8.60141 4.75 8.69961 4.75H10.6563C10.8581 4.75 10.9869 4.94673 10.8912 5.10904Z" fill="#2AB749"/>
<path d="M6.51478 5.10907L4.29492 8.8762C4.25252 8.94813 4.25244 9.03468 4.2947 9.10669L6.51584 12.8913C6.61109 13.0536 6.48232 13.25 6.28063 13.25H4.32344C4.22508 13.25 4.13469 13.2006 4.08823 13.1214L1.73203 9.10671C1.68977 9.03471 1.68985 8.94815 1.73224 8.87622L4.08816 4.87822C4.13469 4.79925 4.22495 4.75002 4.32315 4.75002H6.27981C6.48168 4.75002 6.61043 4.94675 6.51478 5.10907Z" fill="#2AB749"/>
</svg>
