<svg width="32" height="32" viewBox="0 0 32 32" fill="none" xmlns="http://www.w3.org/2000/svg">
<rect width="32" height="32" rx="16" fill="#386DF3"/>
<path d="M16.7666 7.88334L22.1916 10.8083C22.8249 11.15 22.8249 12.125 22.1916 12.4667L16.7666 15.3917C16.2833 15.65 15.7166 15.65 15.2333 15.3917L9.80825 12.4667C9.17492 12.125 9.17492 11.15 9.80825 10.8083L15.2333 7.88334C15.7166 7.62501 16.2833 7.62501 16.7666 7.88334Z" stroke="white" stroke-width="1.5" stroke-linecap="round" stroke-linejoin="round"/>
<path d="M9.00841 14.4417L14.0501 16.9667C14.6751 17.2833 15.0751 17.925 15.0751 18.625V23.3917C15.0751 24.0833 14.3501 24.525 13.7334 24.2167L8.69175 21.6917C8.06675 21.375 7.66675 20.7333 7.66675 20.0333V15.2667C7.66675 14.575 8.39175 14.1333 9.00841 14.4417Z" stroke="white" stroke-width="1.5" stroke-linecap="round" stroke-linejoin="round"/>
<path d="M22.9917 14.4417L17.95 16.9667C17.325 17.2833 16.925 17.925 16.925 18.625V23.3917C16.925 24.0833 17.65 24.525 18.2667 24.2167L23.3084 21.6917C23.9334 21.375 24.3334 20.7333 24.3334 20.0333V15.2667C24.3334 14.575 23.6084 14.1333 22.9917 14.4417Z" stroke="white" stroke-width="1.5" stroke-linecap="round" stroke-linejoin="round"/>
</svg>
