<svg width="201" height="200" viewBox="0 0 201 200" fill="none" xmlns="http://www.w3.org/2000/svg">
<g clip-path="url(#clip0_91_2287)">
<path d="M170.338 88.9461C165.315 94.5856 164.425 102.149 163.621 109.863C163.02 115.569 162.467 121.359 160.32 126.517C158.506 130.803 155.618 134.549 151.936 137.394C151.606 137.652 151.27 137.9 150.927 138.142H132.61C132.581 137.894 132.559 137.642 132.537 137.394C131.749 128.005 133.879 118.602 138.636 110.47C140.539 107.284 142.836 104.351 145.473 101.74C148.33 106.729 151.858 111.551 151.858 111.551L150.264 97.5688C156.154 93.1041 163.045 90.1442 170.338 88.9461Z" fill="#F2F2F2"/>
<path d="M200.491 105.421C188.294 110.303 184.701 125.98 174.767 134.581C173.541 135.639 172.22 136.58 170.819 137.394C170.367 137.658 169.908 137.91 169.439 138.142H143.071C143.134 137.894 143.194 137.642 143.26 137.394C146.07 126.489 153.039 116.663 162.517 110.548C162.882 110.313 163.25 110.083 163.621 109.863C166.43 108.178 169.418 106.81 172.529 105.783C172.862 111.52 173.868 117.411 173.868 117.411L178.678 104.186C185.941 102.817 193.429 103.241 200.491 105.421Z" fill="#F2F2F2"/>
<path d="M200.453 137.768C200.453 137.817 200.444 137.866 200.425 137.912C200.406 137.957 200.379 137.998 200.344 138.033C200.309 138.068 200.268 138.095 200.222 138.114C200.177 138.133 200.128 138.142 200.079 138.142H0.37408C0.274868 138.142 0.179718 138.103 0.109565 138.033C0.0394113 137.963 0 137.867 0 137.768C0 137.669 0.0394113 137.574 0.109565 137.504C0.179718 137.434 0.274868 137.394 0.37408 137.394H200.079C200.128 137.394 200.177 137.404 200.222 137.422C200.268 137.441 200.309 137.469 200.344 137.503C200.379 137.538 200.406 137.579 200.425 137.625C200.444 137.67 200.453 137.719 200.453 137.768Z" fill="#CCCCCC"/>
<path d="M125.556 140.557H90.6577C89.0452 140.558 87.4484 140.241 85.9585 139.625C84.4686 139.008 83.1147 138.104 81.9743 136.964C80.8338 135.825 79.9291 134.471 79.3119 132.982C78.6946 131.492 78.377 129.895 78.377 128.283C78.377 126.67 78.6946 125.074 79.3119 123.584C79.9291 122.095 80.8338 120.741 81.9743 119.601C83.1147 118.461 84.4686 117.557 85.9585 116.941C87.4484 116.324 89.0452 116.008 90.6577 116.008H125.556C127.168 116.008 128.765 116.324 130.255 116.941C131.745 117.557 133.099 118.461 134.239 119.601C135.38 120.741 136.284 122.095 136.901 123.584C137.519 125.074 137.836 126.67 137.836 128.283C137.836 129.895 137.519 131.492 136.901 132.982C136.284 134.471 135.38 135.825 134.239 136.964C133.099 138.104 131.745 139.008 130.255 139.625C128.765 140.241 127.168 140.558 125.556 140.557Z" fill="#2F2E41"/>
<path d="M93.3496 185.312L98.1023 188.707L113.46 171.99L106.445 166.98L93.3496 185.312Z" fill="#FFB6B6"/>
<path d="M93.2452 182.894L94.5829 183.85L101.323 185.457L102.605 189.58L102.605 189.58C104.187 190.711 105.255 192.423 105.575 194.341C105.894 196.258 105.439 198.224 104.309 199.806L104.17 200L88.8457 189.053L93.2452 182.894Z" fill="#2F2E41"/>
<path d="M120.331 135.8L115.777 129.104C115.219 121.838 120.812 115.437 128.099 115.294C132.157 115.215 136.123 117.161 138.239 123.743C143.679 140.668 107.235 179.83 107.235 179.83L99.6251 175.953L98.9014 171.253L102.75 168.419L102.421 164.387L106.137 162.234L120.331 135.8Z" fill="#2F2E41"/>
<path d="M108.434 54.8471L114.063 59.1333L120.852 61.2195C120.852 61.2195 123.658 100.696 126.187 103.225C128.716 105.754 126.435 105.822 126.943 109.107C127.452 112.392 128.687 119.126 128.687 119.126C111.617 128.161 96.9018 128.404 85.0815 117.83C84.9303 117.176 85.0071 116.49 85.2993 115.886C85.5915 115.282 86.0814 114.795 86.6879 114.507C88.8878 113.34 84.6599 107.892 86.4577 106.981C88.2556 106.07 85.7269 98.1674 85.7269 98.1674L87.3857 81.6797L86.0752 79.0441L89.2735 62.9172L94.8231 60.8905L97.04 55.5493L108.434 54.8471Z" fill="#386DF3"/>
<path d="M102.671 52.4615C108.821 52.4615 113.806 47.4764 113.806 41.3271C113.806 35.1778 108.821 30.1928 102.671 30.1928C96.5221 30.1928 91.5371 35.1778 91.5371 41.3271C91.5371 47.4764 96.5221 52.4615 102.671 52.4615Z" fill="#FFB6B6"/>
<path d="M66.8101 20.1517C67.2786 20.6896 67.6235 21.3237 67.8204 22.0094C68.0174 22.695 68.0616 23.4155 67.95 24.1201C67.8383 24.8247 67.5736 25.4962 67.1743 26.0874C66.7751 26.6786 66.2511 27.1751 65.6392 27.5418L69.1862 44.5158L60.8079 41.1986L58.7241 25.5884C58.1761 24.5197 58.0391 23.287 58.3392 22.1241C58.6393 20.9611 59.3555 19.9487 60.3522 19.2785C61.3489 18.6084 62.5568 18.3271 63.7471 18.4881C64.9373 18.649 66.0271 19.2409 66.8101 20.1517Z" fill="#FFB6B6"/>
<path d="M58.8066 31.4946L62.1947 62.6957L62.3148 62.7546C62.4137 62.8032 66.7061 64.9086 71.9751 67.416C72.864 67.839 72.7365 69.6712 73.6655 70.1092C74.3054 70.4108 75.9953 69.3163 76.6418 69.6186C82.4011 72.3119 88.2246 74.9308 90.5455 75.6404C93.6787 76.6331 97.0573 76.5243 100.12 75.3321L100.194 75.2983L100.233 75.2266C101.015 73.7606 101.275 72.0717 100.969 70.4384C100.663 68.805 99.8092 67.3247 98.5489 66.2416C92.4363 61.0446 85.1994 57.3393 77.4095 55.4184L72.9771 54.3309L67.3004 32.1046L58.8066 31.4946Z" fill="#386DF3"/>
<path d="M93.6022 31.7618C94.5178 29.0979 99.0761 27.2502 106.466 26.9933C113.855 26.7364 115.729 35.4446 115.729 35.4446C120.662 39.4464 110.462 50.16 109.968 49.7741L110.19 47.7613C110.558 44.4272 112.119 41.8257 110.133 38.351L108.227 38.3729L104.61 39.0683C104.385 39.1116 104.152 39.0796 103.946 38.9772C103.741 38.8748 103.575 38.7077 103.474 38.5016C103.373 38.2955 103.342 38.0619 103.387 37.8368C103.432 37.6116 103.549 37.4075 103.722 37.2558L103.755 37.2266L103.672 37.0995C102.399 37.6839 101.086 38.2259 99.6931 38.3077C98.1262 38.3998 96.4133 37.7762 95.6628 36.3977C95.4624 36.0188 95.34 35.6036 95.3027 35.1765C93.1898 36.0207 92.2236 38.6255 92.2236 38.6255C92.2236 38.6255 92.6865 34.4256 93.6022 31.7618Z" fill="#2F2E41"/>
<path d="M87.7294 9.15384C87.0978 6.84487 85.8 4.77312 83.9981 3.19729C82.1961 1.62146 79.9699 0.611393 77.5973 0.293213C77.5448 0.28541 77.4949 0.295727 77.4426 0.292162C77.375 0.270432 77.306 0.253701 77.236 0.242104C66.1691 -1.26296 53.3942 4.30669 48.7819 15.347C46.4984 12.1642 42.8574 10.1079 38.9634 10.3123C33.9956 10.5732 29.6115 14.3784 28.2684 19.3833C28.1943 19.6842 28.2146 20.0005 28.3263 20.2895C28.4381 20.5785 28.636 20.8261 28.8932 20.9989C29.761 21.6529 30.3538 22.1113 31.4216 22.3493C33.4314 22.7974 35.4483 23.2078 37.4725 23.5806C41.4222 24.3079 45.3925 24.896 49.3834 25.3447C57.4814 26.2581 65.635 26.5824 73.78 26.3151C76.4923 26.2261 79.1079 26.1314 81.593 24.8718C83.4205 23.9143 84.9656 22.4954 86.0751 20.756C88.2449 17.4431 88.818 12.9908 87.7294 9.15384Z" fill="#3F3D56"/>
<path d="M86.5101 9.73864C85.9117 7.69062 84.7166 5.86736 83.0774 4.50153C81.3732 3.11113 79.3142 2.22483 77.133 1.9427H77.0009L76.8784 1.92069C76.8393 1.9084 76.7993 1.89895 76.7589 1.8924C73.1095 1.45874 69.4109 1.72331 65.8603 2.672C59.0357 4.46695 52.5726 8.717 49.5548 15.573L49.1242 16.557L48.4797 15.6988C46.3579 12.8916 43.1766 11.2538 39.8916 11.2538C39.7282 11.2538 39.5647 11.257 39.3981 11.2664C34.8337 11.4927 30.766 14.7746 29.5023 19.2478C29.4706 19.4062 29.4894 19.5705 29.5559 19.7176C29.6225 19.8648 29.7334 19.9874 29.8732 20.0683L29.9235 20.106C30.7314 20.6813 31.2186 21.0302 32.1145 21.2219C34.0667 21.6369 36.0534 22.0204 38.0181 22.363C41.828 23.0295 45.7386 23.5796 49.6366 23.9977C56.5307 24.7378 63.4633 25.0601 70.3964 24.9627C71.4118 24.9502 72.425 24.9282 73.4362 24.8967C76.039 24.8181 78.5004 24.7395 80.8329 23.6173C82.5042 22.7892 83.9318 21.5414 84.9761 19.996C85.9645 18.5016 86.6139 16.8091 86.8789 15.0372C87.1439 13.2652 87.018 11.4568 86.5101 9.73864Z" fill="white"/>
<path d="M70.3964 24.9627C63.4633 25.0601 56.5307 24.7378 49.6366 23.9977C45.7386 23.5796 41.828 23.0295 38.0181 22.363C36.0534 22.0204 34.0667 21.6369 32.1146 21.2219C31.2186 21.0302 30.7314 20.6812 29.9235 20.106L29.8732 20.0683C29.7334 19.9874 29.6225 19.8648 29.5559 19.7176C29.4894 19.5705 29.4706 19.4062 29.5023 19.2478C30.766 14.7746 34.8337 11.4927 39.3981 11.2664C39.5647 11.257 39.7282 11.2538 39.8916 11.2538C43.1766 11.2538 46.3579 12.8916 48.4797 15.6988L49.1242 16.5569L49.5548 15.573C52.5726 8.71699 59.0357 4.46694 65.8603 2.67198C67.2372 3.91682 68.1236 5.82494 67.6207 7.59475C67.014 9.74177 64.6123 11.0809 64.2099 13.2751C63.8422 15.2775 65.2756 17.1385 66.7499 18.5405C68.2242 19.9394 69.9312 21.3445 70.3587 23.3312C70.4731 23.8679 70.4859 24.4213 70.3964 24.9627Z" fill="#386DF3"/>
<path d="M76.3214 18.8612C79.4465 18.8612 81.9798 16.3278 81.9798 13.2028C81.9798 10.0778 79.4465 7.54446 76.3214 7.54446C73.1964 7.54446 70.6631 10.0778 70.6631 13.2028C70.6631 16.3278 73.1964 18.8612 76.3214 18.8612Z" fill="#386DF3"/>
<path d="M78.6939 12.5991L76.572 10.4772C76.5392 10.4444 76.5002 10.4183 76.4573 10.4006C76.4144 10.3828 76.3684 10.3736 76.322 10.3736C76.2755 10.3736 76.2295 10.3828 76.1866 10.4006C76.1437 10.4183 76.1048 10.4444 76.0719 10.4772L73.9501 12.5991C73.8838 12.6655 73.8466 12.7554 73.8467 12.8491C73.8467 12.9428 73.884 13.0327 73.9502 13.099C74.0165 13.1653 74.1064 13.2025 74.2002 13.2026C74.2939 13.2026 74.3838 13.1654 74.4501 13.0992L75.9683 11.581V15.6783C75.9683 15.7721 76.0056 15.8621 76.0719 15.9284C76.1382 15.9947 76.2282 16.032 76.322 16.032C76.4158 16.032 76.5057 15.9947 76.572 15.9284C76.6384 15.8621 76.6756 15.7721 76.6756 15.6783V11.581L78.1938 13.0992C78.2266 13.1321 78.2656 13.1582 78.3085 13.176C78.3514 13.1938 78.3975 13.203 78.4439 13.203C78.4904 13.203 78.5364 13.1939 78.5793 13.1761C78.6222 13.1583 78.6612 13.1323 78.6941 13.0994C78.7269 13.0666 78.753 13.0276 78.7708 12.9846C78.7885 12.9417 78.7977 12.8957 78.7977 12.8492C78.7976 12.8028 78.7885 12.7568 78.7707 12.7139C78.7529 12.6709 78.7268 12.632 78.6939 12.5991Z" fill="white"/>
<path d="M123.674 180.575L119.217 184.35L102.537 168.953L109.116 163.382L123.674 180.575Z" fill="#FFB6B6"/>
<path d="M128.47 183.933L114.097 196.103L113.943 195.922C112.687 194.438 112.071 192.516 112.232 190.579C112.393 188.641 113.317 186.847 114.8 185.59L114.8 185.59L115.739 181.375L122.324 179.219L123.579 178.157L128.47 183.933Z" fill="#2F2E41"/>
<path d="M96.1256 138.001L99.81 130.011C99.7687 122.723 93.6681 116.804 86.3945 117.261C82.3438 117.515 78.5508 119.781 76.9837 126.515C72.9539 143.83 112.494 179.863 112.494 179.863L119.76 175.373L120.094 170.629L116.025 168.121L116.022 164.076L112.142 162.236L96.1256 138.001Z" fill="#2F2E41"/>
<path d="M93.2607 122.608V94.8529C93.2614 94.2911 93.4848 93.7526 93.8821 93.3553C94.2793 92.9581 94.8179 92.7346 95.3796 92.734H116.341C116.903 92.7346 117.442 92.9581 117.839 93.3553C118.236 93.7526 118.46 94.2911 118.46 94.8529V122.608C118.46 123.17 118.236 123.709 117.839 124.106C117.442 124.503 116.903 124.727 116.341 124.727H95.3796C94.8179 124.727 94.2793 124.503 93.8821 124.106C93.4848 123.709 93.2614 123.17 93.2607 122.608Z" fill="#E6E6E6"/>
<path d="M94.8691 114.225V96.3814C94.8697 95.8552 95.079 95.3508 95.451 94.9788C95.823 94.6068 96.3274 94.3975 96.8535 94.3969H114.868C115.394 94.3975 115.899 94.6068 116.271 94.9788C116.643 95.3508 116.852 95.8552 116.853 96.3814V121.08C116.852 121.606 116.643 122.111 116.271 122.483C115.899 122.855 115.394 123.064 114.868 123.064H103.709C101.365 123.062 99.1182 122.13 97.4611 120.473C95.8039 118.815 94.8718 116.569 94.8691 114.225Z" fill="white"/>
<path d="M97.7861 101.36C97.7867 100.846 97.9912 100.353 98.3547 99.9895C98.7182 99.626 99.2112 99.4215 99.7253 99.4209H112.222C112.736 99.4209 113.23 99.6252 113.593 99.9889C113.957 100.353 114.161 100.846 114.161 101.36C114.161 101.874 113.957 102.368 113.593 102.731C113.23 103.095 112.736 103.299 112.222 103.299H99.7253C99.2112 103.299 98.7182 103.094 98.3547 102.731C97.9912 102.367 97.7867 101.874 97.7861 101.36Z" fill="#E6E6E6"/>
<path d="M97.7861 107.393C97.7867 106.879 97.9912 106.386 98.3547 106.022C98.7182 105.659 99.2112 105.454 99.7253 105.454H112.222C112.736 105.454 113.23 105.658 113.593 106.022C113.957 106.385 114.161 106.879 114.161 107.393C114.161 107.907 113.957 108.401 113.593 108.764C113.23 109.128 112.736 109.332 112.222 109.332H99.7253C99.2112 109.332 98.7182 109.127 98.3547 108.764C97.9912 108.4 97.7867 107.907 97.7861 107.393Z" fill="#E6E6E6"/>
<path d="M97.7861 113.426C97.7867 112.912 97.9912 112.419 98.3547 112.055C98.7182 111.692 99.2112 111.487 99.7253 111.487H112.222C112.736 111.487 113.23 111.691 113.593 112.055C113.957 112.418 114.161 112.912 114.161 113.426C114.161 113.94 113.957 114.433 113.593 114.797C113.23 115.161 112.736 115.365 112.222 115.365H99.7253C99.2112 115.365 98.7182 115.16 98.3547 114.797C97.9912 114.433 97.7867 113.94 97.7861 113.426Z" fill="#E6E6E6"/>
<path d="M111.96 125.011C111.935 124.298 112.066 123.588 112.345 122.931C112.624 122.275 113.043 121.687 113.574 121.21C114.104 120.733 114.732 120.378 115.415 120.17C116.097 119.962 116.817 119.907 117.523 120.007L125.456 104.587L129.876 112.44L121.665 125.879C121.418 127.054 120.748 128.098 119.783 128.812C118.817 129.527 117.623 129.862 116.427 129.755C115.231 129.648 114.115 129.106 113.292 128.232C112.469 127.357 111.995 126.211 111.96 125.011Z" fill="#FFB6B6"/>
<path d="M125.321 121.239L142.336 94.8669L142.28 94.7455C142.216 94.6065 138.363 86.2848 134.629 78.6627C134.054 77.4889 133.482 76.3317 132.927 75.2235C132.688 74.7453 132.452 74.277 132.219 73.8187C130.651 70.7273 129.281 68.1722 128.463 66.9585C126.654 64.2143 123.961 62.1713 120.831 61.1688L120.753 61.1486L120.677 61.1799C119.146 61.826 117.881 62.9745 117.09 64.4361C116.3 65.8977 116.031 67.5851 116.328 69.2201C117.804 77.1065 121.092 84.5419 125.934 90.9395L128.693 94.5754L119.107 115.416L125.321 121.239Z" fill="#386DF3"/>
</g>
<defs>
<clipPath id="clip0_91_2287">
<rect width="200.491" height="200" fill="white"/>
</clipPath>
</defs>
</svg>
